<mxfile host="app.diagrams.net" modified="2023-04-16T11:20:30.237Z" agent="Mozilla/5.0 (Macintosh; Intel Mac OS X 10_15_7) AppleWebKit/537.36 (KHTML, like Gecko) Chrome/112.0.0.0 Safari/537.36" version="21.1.8" etag="GJwz8Cxec2QHKoX2-rys" type="github">
  <diagram name="ページ1" id="S3I3RbGFVBSHwpuuW09X">
    <mxGraphModel>
      <root>
        <mxCell id="0" />
        <mxCell id="1" parent="0" />
      </root>
    </mxGraphModel>
  </diagram>
</mxfile>
